# xmcd CD database file
#
# Track frame offsets:
#	150
#	28493
#	59113
#	93329
#	116274
#	145770
#	165840
#	193364
#	222279
#	247484
#
# Disc length: 3563 seconds
#
# Revision: 0
# Processed by: cddbd v1.5.2PL0 Copyright (c) Steve Scherf et al.
# Submitted via: CDex 1.70beta1
#
DISCID=9a0de90a
DTITLE=Arnd Stein - BAEHR Wellness Musik Nr.1
DYEAR=1900
DGENRE=New Age
TTITLE0=Beautiful Day
TTITLE1=Timless Flight
TTITLE2=Garden of Dreams
TTITLE3=Sunrise
TTITLE4=Meeresbriese
TTITLE5=Abendstille
TTITLE6=Night-Walk
TTITLE7=Zärtlichkeit
TTITLE8=Entschlossenheit
TTITLE9=Kaminfeuer
EXTD=
EXTT0=
EXTT1=
EXTT2=
EXTT3=
EXTT4=
EXTT5=
EXTT6=
EXTT7=
EXTT8=
EXTT9=
PLAYORDER=
